<svg xmlns="http://www.w3.org/2000/svg" version="1.1" xmlns:xlink="http://www.w3.org/1999/xlink" width="512" height="512" x="0" y="0" viewBox="0 0 330 330" style="enable-background:new 0 0 512 512" xml:space="preserve" class=""><g><path d="M310.874 97.5c0-53.762-43.738-97.5-97.5-97.5H49.126c-16.568 0-30 13.432-30 30s13.432 30 30 30h12.748v210H49.126c-16.568 0-30 13.432-30 30s13.432 30 30 30h164.248c53.762 0 97.5-43.738 97.5-97.5 0-26.174-10.369-49.969-27.212-67.5 16.843-17.531 27.212-41.326 27.212-67.5zm-97.5 37.5h-91.5V60h91.5c20.678 0 37.5 16.822 37.5 37.5s-16.822 37.5-37.5 37.5zm0 135h-91.5v-75h91.5c20.678 0 37.5 16.822 37.5 37.5s-16.822 37.5-37.5 37.5z" fill="#1d1d1d" opacity="1" data-original="#000000" class=""></path></g></svg>