<svg xmlns="http://www.w3.org/2000/svg" version="1.1" xmlns:xlink="http://www.w3.org/1999/xlink" width="512" height="512" x="0" y="0" viewBox="0 0 512 512" style="enable-background:new 0 0 512 512" xml:space="preserve" class=""><g><path d="m302.81 347 73.337 13.932c22.929 4.356 41.683 20.267 45.687 43.255L437.999 497H74.001l16.137-92.801c4-22.999 22.751-38.913 45.685-43.273L211 346.634" style="fill-rule:evenodd;clip-rule:evenodd;stroke-width:29.9999;stroke-linecap:round;stroke-linejoin:round;stroke-miterlimit:22.9256;" fill-rule="evenodd" clip-rule="evenodd" fill="none" stroke="#152242" stroke-width="29.9999" stroke-linecap="round" stroke-linejoin="round" stroke-miterlimit="22.9256" data-original="#000000" opacity="1" class=""></path><path d="M344.823 227c.003.293.004.586.004.879v40.876c0 48.855-39.972 88.828-88.828 88.828h0c-48.855 0-88.827-39.972-88.827-88.828v-40.876" style="fill-rule:evenodd;clip-rule:evenodd;stroke-width:29.9999;stroke-linecap:round;stroke-linejoin:round;stroke-miterlimit:22.9256;" fill-rule="evenodd" clip-rule="evenodd" fill="none" stroke="#152242" stroke-width="29.9999" stroke-linecap="round" stroke-linejoin="round" stroke-miterlimit="22.9256" data-original="#000000" opacity="1" class=""></path><path d="m288.63 351.98-97.631 58.01v75.232M166.999 166h178v60h-178zM344.999 127.914v37.906h-178v-37.905c-18.741-6.764-32.137-24.706-32.137-45.779 0-26.873 21.785-48.657 48.658-48.657a48.44 48.44 0 0 1 23.213 5.884C218.063 24.554 235.914 15 255.999 15c20.085 0 37.937 9.554 49.267 24.361a48.44 48.44 0 0 1 23.213-5.884c26.873 0 48.658 21.785 48.658 48.657-.001 21.074-13.397 39.016-32.138 45.78zM251 437h10" style="fill-rule:evenodd;clip-rule:evenodd;stroke-width:29.9999;stroke-linecap:round;stroke-linejoin:round;stroke-miterlimit:22.9256;" fill-rule="evenodd" clip-rule="evenodd" fill="none" stroke="#152242" stroke-width="29.9999" stroke-linecap="round" stroke-linejoin="round" stroke-miterlimit="22.9256" data-original="#000000" opacity="1" class=""></path></g></svg>