<svg xmlns="http://www.w3.org/2000/svg" version="1.1" xmlns:xlink="http://www.w3.org/1999/xlink" width="512" height="512" x="0" y="0" viewBox="0 0 330 330" style="enable-background:new 0 0 512 512" xml:space="preserve" class=""><g><path d="M315 285H201.214l124.393-124.394c5.858-5.857 5.858-15.355 0-21.213l-120-120c-5.857-5.858-15.355-5.858-21.213 0l-180 179.999a14.996 14.996 0 0 0 0 21.214l90 90A14.999 14.999 0 0 0 105 314.999l60 .001.017-.001L315 315c8.283 0 15-6.716 15-15 0-8.284-6.716-15-15-15zM195 51.213 293.787 150 207 236.787 108.213 138 195 51.213z" fill="#1d1d1d" opacity="1" data-original="#000000" class=""></path></g></svg>