<svg xmlns="http://www.w3.org/2000/svg" version="1.1" xmlns:xlink="http://www.w3.org/1999/xlink" width="512" height="512" x="0" y="0" viewBox="0 0 512 512" style="enable-background:new 0 0 512 512" xml:space="preserve" class=""><g><path d="M32.1 64.2h447.7c17.7 0 32.1 14.4 32.1 32.1s-14.4 32.1-32.1 32.1H32.1C14.4 128.5 0 114.1 0 96.3c0-17.7 14.4-32.1 32.1-32.1zM113.1 223.9h285.7c17.7 0 32.1 14.4 32.1 32.1s-14.4 32.1-32.1 32.1H113.1C95.4 288.1 81 273.7 81 256s14.4-32.1 32.1-32.1zM194.1 383.5h123.7c17.7 0 32.1 14.4 32.1 32.1s-14.4 32.1-32.1 32.1H194.1c-17.7 0-32.1-14.4-32.1-32.1s14.4-32.1 32.1-32.1z" fill="#fefefe" opacity="1" data-original="#000000" class=""></path></g></svg>