<svg xmlns="http://www.w3.org/2000/svg" version="1.1" xmlns:xlink="http://www.w3.org/1999/xlink" width="512" height="512" x="0" y="0" viewBox="0 0 24 24" style="enable-background:new 0 0 512 512" xml:space="preserve" class=""><g><path d="M9.25 12.75h-6.5V18a.75.75 0 0 1-1.5 0V6a.75.75 0 0 1 1.5 0v5.25h6.5V6a.75.75 0 0 1 1.5 0v12a.75.75 0 0 1-1.5 0zm13.495 2.45a3.725 3.725 0 0 0-1.025-2.782A3.71 3.71 0 0 0 21.23 12a3.71 3.71 0 0 0 .489-.418A3.725 3.725 0 0 0 22.745 8.8c-.105-1.99-1.824-3.55-3.915-3.55H17A3.754 3.754 0 0 0 13.25 9a.75.75 0 0 0 1.5 0c0-1.24 1.01-2.25 2.25-2.25h1.83c1.271 0 2.355.955 2.417 2.128.032.625-.186 1.219-.615 1.67s-1.01.702-1.632.702h-1a.75.75 0 0 0 0 1.5h1c.623 0 1.202.249 1.632.701s.647 1.046.615 1.671c-.062 1.173-1.146 2.128-2.417 2.128H17c-1.24 0-2.25-1.01-2.25-2.25a.75.75 0 0 0-1.5 0A3.754 3.754 0 0 0 17 18.75h1.83c2.09 0 3.81-1.56 3.915-3.55z" fill="#1d1d1d" opacity="1" data-original="#000000" class=""></path></g></svg>