<svg xmlns="http://www.w3.org/2000/svg" version="1.1" xmlns:xlink="http://www.w3.org/1999/xlink" width="512" height="512" x="0" y="0" viewBox="0 0 330.003 330.003" style="enable-background:new 0 0 512 512" xml:space="preserve" class=""><g><path d="M255.001 0h-120c-8.284 0-15 6.716-15 15s6.716 15 15 15h41.703l-54 270H75.001c-8.284 0-15 6.716-15 15s6.716 15 15 15h59.956c.02 0 .04.003.059.003.023 0 .045-.003.066-.003H195c8.284 0 15-6.716 15-15s-6.716-15-15-15h-41.703l54-270H255c8.284 0 15-6.716 15-15s-6.714-15-14.999-15z" fill="#1d1d1d" opacity="1" data-original="#000000"></path></g></svg>