<?xml version="1.0" encoding="utf-8"?>
<svg xmlns="http://www.w3.org/2000/svg" viewBox="224.669 302.9815 50.662 64.037" width="50.662px" height="64.037px"><g transform="matrix(1, 0, 0, 1, -203.1834747073572, 16.51422143748735)" id="object-0"><g transform="matrix(1, 0, 0, 1, 419.183478, 284.485295)"><path d="M58.952 66.019H14.771c-3.359 0-6.09-2.739-6.09-6.105v-.965c0-.052 0-.124.015-.201.087-3.314 2.747-5.905 6.075-5.905h44.181a.375.375 0 0 1 .284.62c-2.94 3.402-2.94 8.533 0 11.935a.375.375 0 0 1-.284.62zM14.771 53.593a5.286 5.286 0 0 0-5.326 5.213.377.377 0 0 1-.018.108l.004 1c0 2.952 2.395 5.355 5.34 5.355h43.404c-2.524-3.452-2.524-8.225 0-11.676H14.77z" fill="#1d1d1d" opacity="1" data-original="#000000" class=""/><path fill="#e63946" d="M15.26 2.356a6.216 6.216 0 0 0-6.216 6.216v50.863a6.216 6.216 0 0 1 6.216-6.216h43.696V2.356z" opacity="1" data-original="#fbba84" class=""/><path d="M9.044 59.81a.375.375 0 0 1-.375-.374V8.572a6.599 6.599 0 0 1 6.592-6.59h43.695c.207 0 .375.167.375.374V53.22a.375.375 0 0 1-.375.375H15.261a5.849 5.849 0 0 0-5.842 5.842.375.375 0 0 1-.375.375zM15.26 2.732a5.848 5.848 0 0 0-5.842 5.841v47.812a6.598 6.598 0 0 1 5.842-3.54h43.32V2.73z" fill="#1d1d1d" opacity="1" data-original="#000000" class=""/><path fill="#a92a34" d="M17.02 2.356h-1.76a6.216 6.216 0 0 0-6.216 6.216v50.863a6.216 6.216 0 0 1 6.216-6.216h1.76z" opacity="1" data-original="#f79857" class=""/><path d="M9.044 59.81a.375.375 0 0 1-.375-.374V8.572a6.599 6.599 0 0 1 6.59-6.59h1.76c.208 0 .376.167.376.374V53.22a.375.375 0 0 1-.375.375h-1.76a5.848 5.848 0 0 0-5.841 5.842.375.375 0 0 1-.375.375zM15.26 2.732c-3.22 0-5.841 2.62-5.841 5.841v47.812a6.597 6.597 0 0 1 5.84-3.54h1.386V2.73z" fill="#1d1d1d" opacity="1" data-original="#000000" class=""/><path d="M49.067 39.74H26.936a.375.375 0 0 1 0-.75h22.131a.375.375 0 0 1 0 .75zM52.465 57.685H15.569a.375.375 0 0 1 0-.75h36.896a.375.375 0 0 1 0 .75zM52.465 61.74H15.569a.375.375 0 0 1 0-.75h36.896a.375.375 0 0 1 0 .75z" fill="#1d1d1d" opacity="1" data-original="#000000" class=""/></g><g transform="matrix(1.562249, 0, 0, 1.562249, 436.99784, 291.992253)" style=""><path d="M18.75 9H18V6c0-3.309-2.691-6-6-6S6 2.691 6 6v3h-.75A2.253 2.253 0 0 0 3 11.25v10.5C3 22.991 4.01 24 5.25 24h13.5c1.24 0 2.25-1.009 2.25-2.25v-10.5C21 10.009 19.99 9 18.75 9zM8 6c0-2.206 1.794-4 4-4s4 1.794 4 4v3H8zm5 10.722V19a1 1 0 1 1-2 0v-2.278c-.595-.347-1-.985-1-1.722 0-1.103.897-2 2-2s2 .897 2 2c0 .737-.405 1.375-1 1.722z" fill="#fefefe" opacity="1" data-original="#000000" class=""/></g></g></svg>