<svg xmlns="http://www.w3.org/2000/svg" version="1.1" xmlns:xlink="http://www.w3.org/1999/xlink" width="512" height="512" x="0" y="0" viewBox="0 0 317.109 317.109" style="enable-background:new 0 0 512 512" xml:space="preserve" class=""><g><path d="M102.109 53.555h200c8.284 0 15-6.716 15-15s-6.716-15-15-15h-200c-8.284 0-15 6.716-15 15s6.716 15 15 15zM302.109 83.555h-200c-8.284 0-15 6.716-15 15s6.716 15 15 15h200c8.284 0 15-6.716 15-15s-6.715-15-15-15zM302.109 143.555h-200c-8.284 0-15 6.716-15 15 0 8.284 6.716 15 15 15h200c8.284 0 15-6.716 15-15 0-8.285-6.715-15-15-15zM302.109 263.555h-200c-8.284 0-15 6.716-15 15 0 8.284 6.716 15 15 15h200c8.284 0 15-6.716 15-15 0-8.284-6.715-15-15-15zM302.109 203.555h-200c-8.284 0-15 6.716-15 15 0 8.284 6.716 15 15 15h200c8.284 0 15-6.716 15-15 0-8.285-6.715-15-15-15zM17.826 49.036V86.6c0 4.074 3.32 7.146 7.724 7.146 4.33 0 7.721-3.139 7.721-7.146V30.425c0-3.96-3.247-7.062-7.392-7.062-3.647 0-5.471 2.447-6.07 3.251a6.54 6.54 0 0 0-.074.102l-6.526 9.233c-1.267 1.378-2.394 3.582-2.394 5.696-.001 4.03 3.133 7.317 7.011 7.391zM7.63 193.746h29.406c3.849 0 6.981-3.391 6.981-7.559 0-4.124-3.131-7.479-6.981-7.479H15.684v-.122c0-2.246 5.148-5.878 9.285-8.797 8.229-5.807 18.47-13.033 18.47-25.565 0-11.893-9.216-20.86-21.438-20.86-11.703 0-20.527 8.044-20.527 18.711 0 6.19 4.029 8.387 7.479 8.387 4.938 0 7.889-3.676 7.889-7.23 0-2.21.568-4.746 4.994-4.746 5.979 0 6.151 5.298 6.151 5.902 0 4.762-6.18 9.213-12.157 13.519C8.442 163.228.068 169.26.068 178.587v8.011c-.001 4.276 3.91 7.148 7.562 7.148zM42.446 242.783c0-12.342-7.288-19.42-19.994-19.42-16.66 0-21.062 11.898-21.062 18.189 0 7.325 5.445 8.115 7.786 8.115 4.559 0 7.621-3.063 7.621-7.622 0-1.753.624-3.766 5.487-3.766 3.495 0 4.918.503 4.918 5.568 0 4.948-1.062 5.487-5.245 5.487-4.018 0-7.047 3.17-7.047 7.375 0 4.159 3.066 7.295 7.131 7.295 5.525 0 6.635 2.256 6.635 5.897v1.558c0 6.126-2.389 7.288-6.798 7.288-6.083 0-6.556-3.133-6.556-4.093 0-3.631-2.407-7.294-7.785-7.294-4.72 0-7.538 2.942-7.538 7.869 0 8.976 7.696 18.516 21.958 18.516 13.854 0 22.126-8.331 22.126-22.286v-1.558c0-5.722-1.83-10.465-5.264-13.876 2.352-3.403 3.627-7.944 3.627-13.242z" fill="#000000" opacity="1" data-original="#000000" class=""></path></g></svg>