<svg xmlns="http://www.w3.org/2000/svg" version="1.1" xmlns:xlink="http://www.w3.org/1999/xlink" width="512" height="512" x="0" y="0" viewBox="0 0 64 64" style="enable-background:new 0 0 512 512" xml:space="preserve" class=""><g><g data-name="Layer 4"><path d="M32 5.83A26.17 26.17 0 1 0 58.17 32 26.2 26.2 0 0 0 32 5.83Zm0 48.33A22.17 22.17 0 1 1 54.17 32 22.19 22.19 0 0 1 32 54.17Z" fill="#fefefe" opacity="1" data-original="#000000" class=""></path><path d="M42.81 30H34v-8.81a2 2 0 0 0-4 0V30h-8.81a2 2 0 0 0 0 4H30v8.81a2 2 0 0 0 4 0V34h8.81a2 2 0 0 0 0-4Z" fill="#fefefe" opacity="1" data-original="#000000" class=""></path></g></g></svg>