<svg xmlns="http://www.w3.org/2000/svg" version="1.1" xmlns:xlink="http://www.w3.org/1999/xlink" width="512" height="512" x="0" y="0" viewBox="0 0 64 64" style="enable-background:new 0 0 512 512" xml:space="preserve" class=""><g><path d="M54.81 18h-2.6V6.5a2 2 0 0 0-2-2H13.79a2 2 0 0 0-2 2V18h-2.6a4.7 4.7 0 0 0-4.69 4.64v23.52a4.7 4.7 0 0 0 4.69 4.69h5.93v6.65a2 2 0 0 0 2 2h29.76a2 2 0 0 0 2-2v-6.65h5.93a4.7 4.7 0 0 0 4.69-4.69V22.64A4.7 4.7 0 0 0 54.81 18zm-39-9.45h32.4V18H15.79zm3.34 47V36.4h25.73v19.1zm36.35-9.39a.69.69 0 0 1-.69.69h-5.93V36.4h2.78a2 2 0 0 0 0-4H12.34a2 2 0 0 0 0 4h2.78v10.45H9.19a.69.69 0 0 1-.69-.69V22.64a.69.69 0 0 1 .69-.64h45.62a.69.69 0 0 1 .69.69z" data-name="Layer 11" fill="#fefefe" opacity="1" data-original="#000000"></path></g></svg>