<svg xmlns="http://www.w3.org/2000/svg" version="1.1" xmlns:xlink="http://www.w3.org/1999/xlink" width="512" height="512" x="0" y="0" viewBox="0 0 24 24" style="enable-background:new 0 0 512 512" xml:space="preserve" class=""><g transform="matrix(1.299999999999998,-3.1840816777831138e-16,-3.1840816777831138e-16,-1.299999999999998,-3.6000002145767187,27.599998903274546)"><path d="M20.6 12.2c-.4-.8-1-1.4-1.7-1.7-.9-.5-1.9-.5-3.7-.5H6.4l2.3-2.3c.4-.4.4-1 0-1.4s-1-.4-1.4 0l-4 4c-.1.1-.2.2-.2.3-.1.1-.1.3-.1.4 0 .1 0 .3.1.4 0 .1.1.2.2.3l4 4c.4.4 1 .4 1.4 0s.4-1 0-1.4L6.4 12h8.8c1.5 0 2.3 0 2.7.2s.7.5.9.9.2 1.2.2 2.7V17c0 .6.4 1 1 1s1-.4 1-1v-1.2c0-1.8 0-2.8-.4-3.6z" fill="#152242" opacity="1" data-original="#000000" class=""></path></g></svg>