<svg xmlns="http://www.w3.org/2000/svg" version="1.1" xmlns:xlink="http://www.w3.org/1999/xlink" width="512" height="512" x="0" y="0" viewBox="0 0 100 100" style="enable-background:new 0 0 512 512" xml:space="preserve" class=""><g transform="matrix(1.0499999999999994,0,0,1.0499999999999994,-2.499996709823563,-2.5000249743461254)"><g fill="#bb009a"><path d="M79.868 25.401a42.34 42.34 0 0 0-6.93-5.605c-3.06-1.981-7.105.264-7.105 3.91v1.631c0 1.548.79 2.973 2.067 3.848 8.89 6.088 14.527 16.632 13.683 28.406-1.12 15.617-13.807 28.239-29.43 29.274-18.453 1.222-33.82-13.403-33.82-31.596a31.568 31.568 0 0 1 13.765-26.088c1.28-.873 2.069-2.299 2.069-3.848v-1.646c0-3.645-4.043-5.891-7.104-3.911a41.73 41.73 0 0 0-6.931 5.625C11.622 33.968 6.669 46.188 7.977 59.5c2.04 20.748 19.33 37.071 40.158 37.961 12.388.53 23.676-4.24 31.733-12.323 7.6-7.65 12.363-18.214 12.363-29.868 0-11.653-4.763-22.217-12.363-29.868z" fill="#fefefe" opacity="1" data-original="#bb009a" class=""></path><path d="M49.355 2.5h1.316a4.624 4.624 0 0 1 4.624 4.624v32.983a4.624 4.624 0 0 1-4.624 4.624h-1.316a4.624 4.624 0 0 1-4.624-4.624V7.124A4.624 4.624 0 0 1 49.355 2.5z" fill="#fefefe" opacity="1" data-original="#bb009a" class=""></path></g></g></svg>