<svg xmlns="http://www.w3.org/2000/svg" version="1.1" xmlns:xlink="http://www.w3.org/1999/xlink" width="512" height="512" x="0" y="0" viewBox="0 0 330 330" style="enable-background:new 0 0 512 512" xml:space="preserve" class=""><g><path d="M75 60h240c8.284 0 15-6.716 15-15s-6.716-15-15-15H75c-8.284 0-15 6.716-15 15s6.716 15 15 15zM315 90H75c-8.284 0-15 6.716-15 15s6.716 15 15 15h240c8.284 0 15-6.716 15-15s-6.716-15-15-15zM315 150H75c-8.284 0-15 6.716-15 15s6.716 15 15 15h240c8.284 0 15-6.716 15-15s-6.716-15-15-15zM315 270H75c-8.284 0-15 6.716-15 15s6.716 15 15 15h240c8.284 0 15-6.716 15-15s-6.716-15-15-15zM315 210H75c-8.284 0-15 6.716-15 15s6.716 15 15 15h240c8.284 0 15-6.716 15-15s-6.716-15-15-15zM15 30c-3.95 0-7.82 1.6-10.61 4.39A15.13 15.13 0 0 0 0 45c0 3.95 1.6 7.81 4.39 10.61A15.13 15.13 0 0 0 15 60c3.95 0 7.81-1.6 10.61-4.39A15.13 15.13 0 0 0 30 45c0-3.95-1.6-7.81-4.39-10.61A15.111 15.111 0 0 0 15 30zM15 90c-3.95 0-7.82 1.6-10.61 4.39A15.13 15.13 0 0 0 0 105c0 3.95 1.6 7.81 4.39 10.61A15.13 15.13 0 0 0 15 120c3.95 0 7.81-1.6 10.61-4.39C28.4 112.82 30 108.95 30 105c0-3.95-1.6-7.81-4.39-10.61A15.111 15.111 0 0 0 15 90zM15 150c-3.95 0-7.82 1.6-10.61 4.39A15.13 15.13 0 0 0 0 165c0 3.95 1.6 7.81 4.39 10.61C7.18 178.4 11.05 180 15 180c3.95 0 7.82-1.6 10.61-4.39C28.4 172.82 30 168.95 30 165c0-3.95-1.6-7.81-4.39-10.61A15.111 15.111 0 0 0 15 150zM15 270c-3.95 0-7.82 1.6-10.61 4.39A15.13 15.13 0 0 0 0 285c0 3.95 1.6 7.81 4.39 10.61C7.18 298.4 11.05 300 15 300c3.95 0 7.81-1.6 10.61-4.39A15.13 15.13 0 0 0 30 285c0-3.95-1.6-7.82-4.39-10.61A15.111 15.111 0 0 0 15 270zM15 210c-3.95 0-7.82 1.6-10.61 4.39A15.13 15.13 0 0 0 0 225c0 3.95 1.6 7.81 4.39 10.61C7.18 238.4 11.05 240 15 240c3.95 0 7.82-1.6 10.61-4.39A15.13 15.13 0 0 0 30 225c0-3.95-1.6-7.82-4.39-10.61A15.111 15.111 0 0 0 15 210z" fill="#1d1d1d" opacity="1" data-original="#000000" class=""></path></g></svg>