<svg xmlns="http://www.w3.org/2000/svg" version="1.1" xmlns:xlink="http://www.w3.org/1999/xlink" width="512" height="512" x="0" y="0" viewBox="0 0 68 68" style="enable-background:new 0 0 512 512" xml:space="preserve" class=""><g><path d="M58.952 66.019H14.771c-3.359 0-6.09-2.739-6.09-6.105v-.965c0-.052 0-.124.015-.201.087-3.314 2.747-5.905 6.075-5.905h44.181a.375.375 0 0 1 .284.62c-2.94 3.402-2.94 8.533 0 11.935a.375.375 0 0 1-.284.62zM14.771 53.593a5.286 5.286 0 0 0-5.326 5.213.377.377 0 0 1-.018.108l.004 1c0 2.952 2.395 5.355 5.34 5.355h43.404c-2.524-3.452-2.524-8.225 0-11.676H14.77z" fill="#1d1d1d" opacity="1" data-original="#000000" class=""></path><path fill="#e63946" d="M15.26 2.356a6.216 6.216 0 0 0-6.216 6.216v50.863a6.216 6.216 0 0 1 6.216-6.216h43.696V2.356z" opacity="1" data-original="#fbba84" class=""></path><path d="M9.044 59.81a.375.375 0 0 1-.375-.374V8.572a6.599 6.599 0 0 1 6.592-6.59h43.695c.207 0 .375.167.375.374V53.22a.375.375 0 0 1-.375.375H15.261a5.849 5.849 0 0 0-5.842 5.842.375.375 0 0 1-.375.375zM15.26 2.732a5.848 5.848 0 0 0-5.842 5.841v47.812a6.598 6.598 0 0 1 5.842-3.54h43.32V2.73z" fill="#1d1d1d" opacity="1" data-original="#000000" class=""></path><path fill="#a92a34" d="M17.02 2.356h-1.76a6.216 6.216 0 0 0-6.216 6.216v50.863a6.216 6.216 0 0 1 6.216-6.216h1.76z" opacity="1" data-original="#f79857" class=""></path><path d="M9.044 59.81a.375.375 0 0 1-.375-.374V8.572a6.599 6.599 0 0 1 6.59-6.59h1.76c.208 0 .376.167.376.374V53.22a.375.375 0 0 1-.375.375h-1.76a5.848 5.848 0 0 0-5.841 5.842.375.375 0 0 1-.375.375zM15.26 2.732c-3.22 0-5.841 2.62-5.841 5.841v47.812a6.597 6.597 0 0 1 5.84-3.54h1.386V2.73z" fill="#1d1d1d" opacity="1" data-original="#000000" class=""></path><path fill="#fefefe" d="M54.36 22.028a6.325 6.325 0 0 1-5.249 6.256v14.54a1.42 1.42 0 0 1-1.418 1.412H28.398a1.42 1.42 0 0 1-1.419-1.412V28.298a6.326 6.326 0 0 1-5.338-6.27c0-3.48 2.83-6.352 6.353-6.352 1.302 0 2.487.384 3.48 1.07.918-2.83 3.638-4.9 6.818-4.9 3.098 0 5.702 1.918 6.694 4.632.878-.534 1.912-.802 3.022-.802 3.522 0 6.353 2.871 6.353 6.352" opacity="1" data-original="#ffffff" class=""></path><path d="M47.693 44.611H28.398c-.989 0-1.794-.801-1.794-1.787V28.61c-3.112-.641-5.337-3.36-5.337-6.582a6.734 6.734 0 0 1 6.726-6.727c1.175 0 2.302.302 3.288.878 1.12-2.795 3.935-4.708 7.011-4.708 2.999 0 5.712 1.78 6.885 4.473.839-.422 1.808-.643 2.832-.643a6.734 6.734 0 0 1 6.726 6.727c0 3.18-2.188 5.89-5.249 6.565v14.231c0 .986-.804 1.787-1.793 1.787zm-19.7-28.56a5.984 5.984 0 0 0-5.976 5.977c0 2.96 2.11 5.44 5.021 5.9a.374.374 0 0 1 .316.37v14.526c0 .572.47 1.037 1.044 1.037h19.295a1.04 1.04 0 0 0 1.043-1.037v-14.54c0-.182.132-.339.312-.369a5.947 5.947 0 0 0 4.937-5.887 5.984 5.984 0 0 0-5.976-5.977c-1.046 0-2.025.259-2.827.748a.374.374 0 0 1-.548-.191c-.975-2.666-3.464-4.387-6.342-4.387-2.918 0-5.574 1.908-6.46 4.64a.374.374 0 0 1-.57.193 5.728 5.728 0 0 0-3.269-1.003z" fill="#1d1d1d" opacity="1" data-original="#000000" class=""></path><path d="M49.067 39.74H26.936a.375.375 0 0 1 0-.75h22.131a.375.375 0 0 1 0 .75zM52.465 57.685H15.569a.375.375 0 0 1 0-.75h36.896a.375.375 0 0 1 0 .75zM52.465 61.74H15.569a.375.375 0 0 1 0-.75h36.896a.375.375 0 0 1 0 .75z" fill="#1d1d1d" opacity="1" data-original="#000000" class=""></path></g></svg>